<?xml version="1.0" encoding="UTF-8"?>
<svg version="1.1" xmlns="http://www.w3.org/2000/svg" width="656" height="160">
<path d="M0 0 C9.14308858 7.24611132 15.31887693 18.48613997 17 30 C18.11740901 42.86459081 18.42583118 56.54912412 11.8046875 68.08203125 C10.84433686 69.96261258 10.84433686 69.96261258 11.15234375 72 C12.54465444 75.28508329 15.04681938 77.46875558 17.50390625 80 C19 82 19 82 19 86 C16.60308918 89.25099597 13.62240943 91.97979054 10.75 94.8125 C9.58404297 96.01422852 9.58404297 96.01422852 8.39453125 97.24023438 C7.64042969 97.99240234 6.88632813 98.74457031 6.109375 99.51953125 C5.41811523 100.21151611 4.72685547 100.90350098 4.01464844 101.61645508 C2 103 2 103 -0.109375 102.86035156 C-3.03524955 101.52889729 -4.67000765 99.3539617 -6.75 96.9375 C-7.54921875 96.01839844 -8.3484375 95.09929687 -9.171875 94.15234375 C-9.77515625 93.44207031 -10.3784375 92.73179688 -11 92 C-12.27875 92.28875 -13.5575 92.5775 -14.875 92.875 C-15.70773438 93.05546875 -16.54046875 93.2359375 -17.3984375 93.421875 C-19.01391174 93.78086927 -20.62479382 94.16222717 -22.2265625 94.578125 C-39.05655929 98.62657784 -57.23123257 96.1769279 -72.265625 87.7265625 C-83.88996754 80.57007951 -90.88751308 69.92192268 -94.14453125 56.70703125 C-95.14932135 51.85565142 -95.34603403 47.13089454 -95.3125 42.1875 C-95.30686035 41.3116626 -95.3012207 40.4358252 -95.29541016 39.53344727 C-95.04384791 26.05245063 -91.05850921 13.68399703 -81.73828125 3.6171875 C-60.07776883 -16.53439034 -23.60901708 -16.60723705 0 0 Z M-60.3359375 23.75 C-65.73256792 31.73576525 -67.11396533 40.00738594 -65.60546875 49.4765625 C-63.7382788 57.25852836 -59.46108786 62.81718539 -52.96875 67.44921875 C-45.8650602 71.22636724 -37.27454518 71.08667333 -29.53515625 69.4921875 C-22.45145258 67.12642082 -18.50266425 63.37839054 -15.1875 56.9375 C-11.20261234 48.56794631 -10.66702929 40.19689303 -13.5625 31.3125 C-16.53275403 24.06797797 -20.52404687 18.79182309 -27.75 15.5 C-39.11568271 11.64255617 -52.72966682 13.78623022 -60.3359375 23.75 Z " fill="#FFFFFF" transform="translate(213,11)"/>
<path d="M0 0 C9.301875 -0.0825 18.60375 -0.165 28.1875 -0.25 C31.09715576 -0.28641602 34.00681152 -0.32283203 37.00463867 -0.36035156 C39.35074123 -0.37205085 41.69685201 -0.38223972 44.04296875 -0.390625 C45.2287854 -0.41108887 46.41460205 -0.43155273 47.63635254 -0.45263672 C59.30276196 -0.45743228 70.33259181 1.76893731 79 10 C79.82951172 10.78697266 79.82951172 10.78697266 80.67578125 11.58984375 C87.98871411 19.30199379 89.68665591 27.91563323 89.60668945 38.23876953 C89.24047516 46.55992369 86.77894818 53.29937199 80.73828125 59.21484375 C77.35188478 61.95194767 73.93123016 64.13222097 70 66 C71.32417748 68.8236653 72.81284248 71.22497276 74.72265625 73.6875 C75.25737549 74.38077393 75.79209473 75.07404785 76.34301758 75.78833008 C76.91044678 76.51818115 77.47787598 77.24803223 78.0625 78 C79.23450725 79.52463793 80.40638146 81.04937814 81.578125 82.57421875 C83.66045932 85.27347653 85.75398485 87.96323731 87.859375 90.64453125 C88.67723526 91.70040317 89.49495452 92.75638433 90.3125 93.8125 C91.03050781 94.72644531 91.74851562 95.64039062 92.48828125 96.58203125 C94 99 94 99 94 103 C85.91530716 103.60020782 77.84552755 103.97419995 69.73828125 103.7890625 C69.05798859 103.79174637 68.37769592 103.79443024 67.67678833 103.79719543 C61.9572258 103.58854414 59.63322408 101.64807339 55.8125 97.6875 C54.7629151 95.88206568 53.8918403 94.07664367 53.03759766 92.17138672 C50.94075079 87.78330295 48.17054502 83.80340345 45.5 79.75 C45.00089111 78.90397217 44.50178223 78.05794434 43.98754883 77.1862793 C43.48634521 76.39777588 42.9851416 75.60927246 42.46875 74.796875 C42.04013672 74.08885742 41.61152344 73.38083984 41.16992188 72.65136719 C38.11931937 70.03085288 38.11931937 70.03085288 29 70 C29 80.89 29 91.78 29 103 C19.43 103 9.86 103 0 103 C0 69.01 0 35.02 0 0 Z M29 24 C29 31.59 29 39.18 29 47 C33.06360975 47.13495383 37.12273973 47.23411619 41.1875 47.3125 C42.33798828 47.35439453 43.48847656 47.39628906 44.67382812 47.43945312 C50.49160502 47.70431435 50.49160502 47.70431435 55.88134766 45.93505859 C59.00985586 42.86959337 59.96754065 40.49500508 60.25 36.1875 C60.19419208 32.33675371 59.45450556 30.06813195 57 27 C53.78874935 24.04177591 51.6825977 23.63804365 47.359375 23.70703125 C46.28945313 23.71669922 45.21953125 23.72636719 44.1171875 23.73632812 C43.00601563 23.76146484 41.89484375 23.78660156 40.75 23.8125 C39.62335938 23.82603516 38.49671875 23.83957031 37.3359375 23.85351562 C34.55708719 23.88883999 31.77848293 23.94264599 29 24 Z " fill="#FFFFFF" transform="translate(469,2)"/>
<path d="M0 0 C1.25159912 0.00523682 2.50319824 0.01047363 3.79272461 0.01586914 C4.78942421 0.01799156 4.78942421 0.01799156 5.80625916 0.02015686 C7.93590735 0.02577021 10.06545175 0.03832485 12.19506836 0.05102539 C13.63582205 0.05603868 15.07657739 0.06060188 16.51733398 0.06469727 C20.05577938 0.07574394 23.59416375 0.09301747 27.13256836 0.11352539 C45.81537352 41.16883402 45.81537352 41.16883402 54.53051758 61.47436523 C57.2420321 67.78255449 59.99389693 74.06910929 62.81616211 80.32836914 C63.12124695 81.00531326 63.42633179 81.68225739 63.74066162 82.37971497 C65.21213979 85.64115743 66.68916589 88.89996668 68.1730957 92.15576172 C68.95160889 93.87508911 68.95160889 93.87508911 69.74584961 95.62915039 C70.43868042 97.14943848 70.43868042 97.14943848 71.14550781 98.70043945 C72.13256836 101.11352539 72.13256836 101.11352539 72.13256836 103.11352539 C61.57256836 103.11352539 51.01256836 103.11352539 40.13256836 103.11352539 C39.14256836 100.67977539 38.15256836 98.24602539 37.13256836 95.73852539 C36.81932617 94.97362793 36.50608398 94.20873047 36.18334961 93.4206543 C34.13256836 88.33574761 34.13256836 88.33574761 34.13256836 86.11352539 C19.28256836 86.11352539 4.43256836 86.11352539 -10.86743164 86.11352539 C-11.85743164 89.41352539 -12.84743164 92.71352539 -13.86743164 96.11352539 C-14.85743164 98.42352539 -15.84743164 100.73352539 -16.86743164 103.11352539 C-27.09743164 103.11352539 -37.32743164 103.11352539 -47.86743164 103.11352539 C-46.74250763 96.36398135 -46.74250763 96.36398135 -45.35546875 93.33178711 C-45.0462146 92.64625763 -44.73696045 91.96072815 -44.41833496 91.25442505 C-44.0805603 90.52472504 -43.74278564 89.79502502 -43.39477539 89.04321289 C-43.04000122 88.26138641 -42.68522705 87.47955994 -42.31970215 86.67404175 C-41.15442419 84.10927668 -39.97958012 81.54901045 -38.80493164 78.98852539 C-37.57493524 76.28634624 -36.34751629 73.58300533 -35.12013245 70.87963867 C-34.28098401 69.03193188 -33.44099997 67.18460437 -32.60020447 65.33764648 C-28.78822857 56.96040161 -25.04128355 48.55510669 -21.3135376 40.1401062 C-19.67489939 36.44144444 -18.03271859 32.74435626 -16.39086914 29.04711914 C-16.08587494 28.36015457 -15.78088074 27.67319 -15.46664429 26.96540833 C-12.79522758 20.94892714 -10.12004115 14.93417744 -7.42993164 8.92602539 C-7.07020264 8.11810547 -6.71047363 7.31018555 -6.33984375 6.4777832 C-3.49368575 0.13831961 -3.49368575 0.13831961 0 0 Z M11.13256836 31.11352539 C9.55927978 34.90105787 7.99290109 38.69136553 6.43286133 42.484375 C5.90122444 43.77421885 5.36770814 45.06328974 4.83227539 46.3515625 C4.06284449 48.20376396 3.30073101 50.05899985 2.53881836 51.91430664 C2.07797852 53.02974854 1.61713867 54.14519043 1.14233398 55.29443359 C-0.03603619 58.08516042 -0.03603619 58.08516042 0.13256836 61.11352539 C7.72256836 61.11352539 15.31256836 61.11352539 23.13256836 61.11352539 C22.3242444 57.07190559 21.37520076 53.92761802 19.84741211 50.15649414 C19.39946289 49.04467773 18.95151367 47.93286133 18.48999023 46.78735352 C18.02141602 45.63686523 17.5528418 44.48637695 17.07006836 43.30102539 C16.59762695 42.13120117 16.12518555 40.96137695 15.63842773 39.75610352 C14.47368119 36.87364996 13.30493602 33.99288574 12.13256836 31.11352539 C11.80256836 31.11352539 11.47256836 31.11352539 11.13256836 31.11352539 Z " fill="#FFFFFF" transform="translate(389.867431640625,1.886474609375)"/>
<path d="M0 0 C1.25159912 0.00523682 2.50319824 0.01047363 3.79272461 0.01586914 C4.78942421 0.01799156 4.78942421 0.01799156 5.80625916 0.02015686 C7.93590735 0.02577021 10.06545175 0.03832485 12.19506836 0.05102539 C13.63582205 0.05603868 15.07657739 0.06060188 16.51733398 0.06469727 C20.05577938 0.07574394 23.59416375 0.09301747 27.13256836 0.11352539 C35.7341637 19.00383894 44.16945213 37.96175898 52.48706055 56.97875977 C56.01288353 65.03550031 59.55203154 73.08492177 63.16772461 81.10180664 C63.4775679 81.78921936 63.78741119 82.47663208 64.10664368 83.18487549 C65.54055594 86.36314429 66.97957599 89.53897662 68.42578125 92.71166992 C68.91941162 93.80205566 69.41304199 94.89244141 69.92163086 96.01586914 C70.35169434 96.95938232 70.78175781 97.90289551 71.22485352 98.875 C72.13256836 101.11352539 72.13256836 101.11352539 72.13256836 103.11352539 C61.57256836 103.11352539 51.01256836 103.11352539 40.13256836 103.11352539 C39.14256836 100.67977539 38.15256836 98.24602539 37.13256836 95.73852539 C36.81932617 94.97362793 36.50608398 94.20873047 36.18334961 93.4206543 C34.13256836 88.33574761 34.13256836 88.33574761 34.13256836 86.11352539 C19.28256836 86.11352539 4.43256836 86.11352539 -10.86743164 86.11352539 C-11.85743164 89.41352539 -12.84743164 92.71352539 -13.86743164 96.11352539 C-14.85743164 98.42352539 -15.84743164 100.73352539 -16.86743164 103.11352539 C-27.09743164 103.11352539 -37.32743164 103.11352539 -47.86743164 103.11352539 C-46.74250763 96.36398135 -46.74250763 96.36398135 -45.35546875 93.33178711 C-45.0462146 92.64625763 -44.73696045 91.96072815 -44.41833496 91.25442505 C-44.0805603 90.52472504 -43.74278564 89.79502502 -43.39477539 89.04321289 C-43.04000122 88.26138641 -42.68522705 87.47955994 -42.31970215 86.67404175 C-41.15442419 84.10927668 -39.97958012 81.54901045 -38.80493164 78.98852539 C-37.57493524 76.28634624 -36.34751629 73.58300533 -35.12013245 70.87963867 C-34.28098401 69.03193188 -33.44099997 67.18460437 -32.60020447 65.33764648 C-28.78822857 56.96040161 -25.04128355 48.55510669 -21.3135376 40.1401062 C-19.67489939 36.44144444 -18.03271859 32.74435626 -16.39086914 29.04711914 C-16.08587494 28.36015457 -15.78088074 27.67319 -15.46664429 26.96540833 C-12.79522758 20.94892714 -10.12004115 14.93417744 -7.42993164 8.92602539 C-7.07020264 8.11810547 -6.71047363 7.31018555 -6.33984375 6.4777832 C-3.49368575 0.13831961 -3.49368575 0.13831961 0 0 Z M11.13256836 31.11352539 C9.55927978 34.90105787 7.99290109 38.69136553 6.43286133 42.484375 C5.90122444 43.77421885 5.36770814 45.06328974 4.83227539 46.3515625 C4.06284449 48.20376396 3.30073101 50.05899985 2.53881836 51.91430664 C2.07797852 53.02974854 1.61713867 54.14519043 1.14233398 55.29443359 C-0.03603619 58.08516042 -0.03603619 58.08516042 0.13256836 61.11352539 C7.72256836 61.11352539 15.31256836 61.11352539 23.13256836 61.11352539 C22.3242444 57.07190559 21.37520076 53.92761802 19.84741211 50.15649414 C19.39946289 49.04467773 18.95151367 47.93286133 18.48999023 46.78735352 C18.02141602 45.63686523 17.5528418 44.48637695 17.07006836 43.30102539 C16.59762695 42.13120117 16.12518555 40.96137695 15.63842773 39.75610352 C14.47368119 36.87364996 13.30493602 33.99288574 12.13256836 31.11352539 C11.80256836 31.11352539 11.47256836 31.11352539 11.13256836 31.11352539 Z " fill="#FFFFFF" transform="translate(47.867431640625,1.886474609375)"/>
<path d="M0 0 C9.57 0 19.14 0 29 0 C29.04898437 4.14304688 29.09796875 8.28609375 29.1484375 12.5546875 C29.19305485 15.88291095 29.23954582 19.21109665 29.28729248 22.53927612 C29.33698889 26.03884092 29.38347549 29.5383774 29.421875 33.03808594 C29.46620897 37.06463621 29.52574469 41.09084283 29.5859375 45.1171875 C29.59748871 46.35612762 29.60903992 47.59506775 29.62094116 48.87155151 C29.71185234 62.90802274 29.71185234 62.90802274 36 75 C41.31815651 78.98861738 47.63047429 78.88488824 54 78 C58.58836085 76.28759739 61.28652736 74.10473183 63.9375 70 C65.64038857 65.19184402 66.13273896 60.832167 66.20532227 55.7409668 C66.22526749 54.50005783 66.24521271 53.25914886 66.26576233 51.9806366 C66.28274257 50.63683189 66.29962152 49.29302591 66.31640625 47.94921875 C66.33699526 46.56630357 66.35799223 45.1833944 66.37937927 43.80049133 C66.43439899 40.17232151 66.4838963 36.54409679 66.53222656 32.91583252 C66.58258898 29.20881308 66.63814741 25.50187173 66.69335938 21.79492188 C66.80118363 14.53000829 66.90036262 7.26504895 67 0 C76.57 0 86.14 0 96 0 C96.16043524 16.44906836 96.16043524 16.44906836 96.1953125 23.53710938 C96.21909386 28.34710656 96.24702443 33.15679514 96.30175781 37.96655273 C96.34567179 41.85047568 96.36923149 45.73406705 96.37950897 49.61821938 C96.38681967 51.08959475 96.40109206 52.56095489 96.42292023 54.03218651 C96.6129142 67.38623168 94.55017522 80.26641093 86 91 C75.45473994 101.52701567 62.76588252 104.93786 48.1875 105.3125 C34.56820133 105.07382664 20.8887192 101.8887192 11 92 C3.28552279 82.42474436 -0.13692393 71.47429277 -0.11352539 59.26025391 C-0.11367142 58.61564209 -0.11381744 57.97103027 -0.1139679 57.30688477 C-0.11327661 55.19674195 -0.10552133 53.08668971 -0.09765625 50.9765625 C-0.09578928 49.5054021 -0.09436669 48.03424108 -0.09336853 46.56307983 C-0.08956533 42.70634215 -0.07975398 38.84964262 -0.06866455 34.99291992 C-0.05659626 30.35726205 -0.05203772 25.72159136 -0.04621124 21.08592224 C-0.03654091 14.05725503 -0.01736904 7.02867139 0 0 Z " fill="#FFFFFF" transform="translate(243,2)"/>
<path d="M0 0 C9.57 0 19.14 0 29 0 C29 33.99 29 67.98 29 103 C19.43 103 9.86 103 0 103 C0 69.01 0 35.02 0 0 Z " fill="#FFFFFF" transform="translate(575,2)"/>
<path d="M0 0 C2.206875 -0.061875 4.41375 -0.12375 6.6875 -0.1875 C8.54955078 -0.23970703 8.54955078 -0.23970703 10.44921875 -0.29296875 C15.20179198 0.09915775 17.68203836 1.68203836 21 5 C21.34553283 8.01107177 21.57248153 10.09312777 21 13 C18.5 16 18.5 16 16 18 C16.433125 18.49371094 16.86625 18.98742187 17.3125 19.49609375 C17.869375 20.13675781 18.42625 20.77742188 19 21.4375 C19.556875 22.07558594 20.11375 22.71367187 20.6875 23.37109375 C22 25 22 25 22 26 C19.375 26.4375 19.375 26.4375 16 26 C14.28860427 24.32720718 12.90899781 22.52519898 11.45703125 20.625 C10.00937827 18.73752644 10.00937827 18.73752644 7.125 18.0625 C6.42375 18.041875 5.7225 18.02125 5 18 C5 20.64 5 23.28 5 26 C3.35 26 1.7 26 0 26 C0 17.42 0 8.84 0 0 Z M5 5 C5 7.64 5 10.28 5 13 C6.45792884 13.05399736 7.91642712 13.09279177 9.375 13.125 C10.59316406 13.15980469 10.59316406 13.15980469 11.8359375 13.1953125 C14.21342243 13.21370051 14.21342243 13.21370051 16 11 C15.71016731 7.69316534 15.71016731 7.69316534 14 5 C12.48071962 4.92820036 10.95832518 4.91607993 9.4375 4.9375 C8.19806641 4.95103516 8.19806641 4.95103516 6.93359375 4.96484375 C5.97646484 4.98224609 5.97646484 4.98224609 5 5 Z " fill="#FFFFFF" transform="translate(491,132)"/>
<path d="M0 0 C6.27 0 12.54 0 19 0 C19 1.65 19 3.3 19 5 C14.38 5 9.76 5 5 5 C5 6.98 5 8.96 5 11 C9.29 11 13.58 11 18 11 C18 12.65 18 14.3 18 16 C13.71 16 9.42 16 5 16 C5 17.98 5 19.96 5 22 C9.62 22 14.24 22 19 22 C19 23.32 19 24.64 19 26 C12.73 26 6.46 26 0 26 C0 17.42 0 8.84 0 0 Z " fill="#FFFFFF" transform="translate(636,132)"/>
<path d="M0 0 C6.27 0 12.54 0 19 0 C19 1.65 19 3.3 19 5 C14.38 5 9.76 5 5 5 C5 6.98 5 8.96 5 11 C9.29 11 13.58 11 18 11 C18 12.65 18 14.3 18 16 C13.71 16 9.42 16 5 16 C5 17.98 5 19.96 5 22 C9.62 22 14.24 22 19 22 C19 23.32 19 24.64 19 26 C12.73 26 6.46 26 0 26 C0 17.42 0 8.84 0 0 Z " fill="#FFFFFF" transform="translate(562,132)"/>
<path d="M0 0 C6.27 0 12.54 0 19 0 C19 1.65 19 3.3 19 5 C14.38 5 9.76 5 5 5 C5 6.98 5 8.96 5 11 C9.29 11 13.58 11 18 11 C18 12.65 18 14.3 18 16 C13.71 16 9.42 16 5 16 C5 17.98 5 19.96 5 22 C9.62 22 14.24 22 19 22 C19 23.32 19 24.64 19 26 C12.73 26 6.46 26 0 26 C0 17.42 0 8.84 0 0 Z " fill="#FFFFFF" transform="translate(517,132)"/>
<path d="M0 0 C6.27 0 12.54 0 19 0 C19 1.65 19 3.3 19 5 C14.38 5 9.76 5 5 5 C5 6.98 5 8.96 5 11 C9.29 11 13.58 11 18 11 C18 12.65 18 14.3 18 16 C13.71 16 9.42 16 5 16 C5 17.98 5 19.96 5 22 C9.62 22 14.24 22 19 22 C19 23.32 19 24.64 19 26 C12.73 26 6.46 26 0 26 C0 17.42 0 8.84 0 0 Z " fill="#FFFFFF" transform="translate(413,132)"/>
<path d="M0 0 C2.27677176 1.46219342 3.34776031 2.79701375 5 5 C3.02 5.99 3.02 5.99 1 7 C0.01 6.34 -0.98 5.68 -2 5 C-4.05709596 4.75944532 -4.05709596 4.75944532 -6.1875 4.875 C-7.445625 4.91625 -8.70375 4.9575 -10 5 C-9.67 6.32 -9.34 7.64 -9 9 C-8.25234375 9.17015625 -7.5046875 9.3403125 -6.734375 9.515625 C-5.74953125 9.75796875 -4.7646875 10.0003125 -3.75 10.25 C-2.28820312 10.59804687 -2.28820312 10.59804687 -0.796875 10.953125 C2.37810887 12.14152678 3.93101681 13.3285921 6 16 C5.93755468 19.55938305 5.75763448 21.96686207 3.625 24.875 C-0.2061015 27.52730104 -4.52245465 27.47309913 -9 27 C-12.4375 25.75 -12.4375 25.75 -15 24 C-15.875 21.8125 -15.875 21.8125 -16 20 C-14.68 19.34 -13.36 18.68 -12 18 C-11.608125 18.474375 -11.21625 18.94875 -10.8125 19.4375 C-8.51731158 21.4161107 -7.00758722 21.77993264 -4 22 C-1.73161963 21.36640898 -1.73161963 21.36640898 0 20 C0.33 19.01 0.66 18.02 1 17 C0.18015625 16.81824219 -0.6396875 16.63648438 -1.484375 16.44921875 C-2.56203125 16.19785156 -3.6396875 15.94648438 -4.75 15.6875 C-5.81734375 15.44386719 -6.8846875 15.20023438 -7.984375 14.94921875 C-10.97230049 14.00871889 -12.77031677 13.18201779 -15 11 C-15.5625 7.5625 -15.5625 7.5625 -15 4 C-11.20479038 -0.9337725 -5.77869288 -1.14626531 0 0 Z " fill="#FFFFFF" transform="translate(627,132)"/>
<path d="M0 0 C2.27677176 1.46219342 3.34776031 2.79701375 5 5 C3.02 5.99 3.02 5.99 1 7 C0.01 6.34 -0.98 5.68 -2 5 C-4.05709596 4.75944532 -4.05709596 4.75944532 -6.1875 4.875 C-7.445625 4.91625 -8.70375 4.9575 -10 5 C-9.67 6.32 -9.34 7.64 -9 9 C-8.25234375 9.17015625 -7.5046875 9.3403125 -6.734375 9.515625 C-5.74953125 9.75796875 -4.7646875 10.0003125 -3.75 10.25 C-2.28820312 10.59804687 -2.28820312 10.59804687 -0.796875 10.953125 C2.37810887 12.14152678 3.93101681 13.3285921 6 16 C5.93755468 19.55938305 5.75763448 21.96686207 3.625 24.875 C-0.2061015 27.52730104 -4.52245465 27.47309913 -9 27 C-12.4375 25.75 -12.4375 25.75 -15 24 C-15.875 21.8125 -15.875 21.8125 -16 20 C-14.68 19.34 -13.36 18.68 -12 18 C-11.608125 18.474375 -11.21625 18.94875 -10.8125 19.4375 C-8.51731158 21.4161107 -7.00758722 21.77993264 -4 22 C-1.73161963 21.36640898 -1.73161963 21.36640898 0 20 C0.33 19.01 0.66 18.02 1 17 C0.18015625 16.81824219 -0.6396875 16.63648438 -1.484375 16.44921875 C-2.56203125 16.19785156 -3.6396875 15.94648438 -4.75 15.6875 C-5.81734375 15.44386719 -6.8846875 15.20023438 -7.984375 14.94921875 C-10.97230049 14.00871889 -12.77031677 13.18201779 -15 11 C-15.5625 7.5625 -15.5625 7.5625 -15 4 C-11.20479038 -0.9337725 -5.77869288 -1.14626531 0 0 Z " fill="#FFFFFF" transform="translate(451,132)"/>
<path d="M0 0 C1.65 0 3.3 0 5 0 C13.76595745 17.14893617 13.76595745 17.14893617 17 26 C15.02 26 13.04 26 11 26 C10.80664062 25.35546875 10.61328125 24.7109375 10.4140625 24.046875 C9.11291753 21.65648799 9.11291753 21.65648799 5.9609375 21.390625 C4.18589844 21.32101563 4.18589844 21.32101563 2.375 21.25 C1.18648437 21.19328125 -0.00203125 21.1365625 -1.2265625 21.078125 C-2.59941406 21.03945312 -2.59941406 21.03945312 -4 21 C-4.99 23.475 -4.99 23.475 -6 26 C-7.65 26 -9.3 26 -11 26 C-9.28137532 20.31531835 -6.8358325 15.01576119 -4.375 9.625 C-3.95476563 8.69816406 -3.53453125 7.77132812 -3.1015625 6.81640625 C-2.07035118 4.54305401 -1.03643137 2.27097594 0 0 Z M2 7 C0.68 10.3 -0.64 13.6 -2 17 C0.97 17 3.94 17 7 17 C6.55090939 15.51800098 6.09043436 14.03944764 5.625 12.5625 C5.24214844 11.32693359 5.24214844 11.32693359 4.8515625 10.06640625 C4.19117773 7.82201984 4.19117773 7.82201984 2 7 Z " fill="#FFFFFF" transform="translate(593,132)"/>
<path d="M0 0 C7.26 0 14.52 0 22 0 C22 1.65 22 3.3 22 5 C19.03 5 16.06 5 13 5 C13 11.93 13 18.86 13 26 C11.68 26 10.36 26 9 26 C9 19.07 9 12.14 9 5 C6.03 5 3.06 5 0 5 C0 3.35 0 1.7 0 0 Z " fill="#FFFFFF" transform="translate(458,132)"/>
<path d="M0 0 C7.26 0 14.52 0 22 0 C22 1.65 22 3.3 22 5 C19.03 5 16.06 5 13 5 C13 11.93 13 18.86 13 26 C11.68 26 10.36 26 9 26 C9 19.07 9 12.14 9 5 C6.03 5 3.06 5 0 5 C0 3.35 0 1.7 0 0 Z " fill="#FFFFFF" transform="translate(389,132)"/>
<path d="M0 0 C1.65 0 3.3 0 5 0 C5 7.26 5 14.52 5 22 C9.29 22 13.58 22 18 22 C18 23.32 18 24.64 18 26 C12.06 26 6.12 26 0 26 C0 17.42 0 8.84 0 0 Z " fill="#FFFFFF" transform="translate(540,132)"/>
</svg>
