<?xml version="1.0" encoding="UTF-8"?>
<svg version="1.1" xmlns="http://www.w3.org/2000/svg" width="500" height="534">
<path d="M0 0 C0.83128418 0.40943848 1.66256836 0.81887695 2.51904297 1.24072266 C26.71096482 13.26606932 48.89081746 29.01756505 69 47 C69.72614502 47.64001953 70.45229004 48.28003906 71.20043945 48.93945312 C77.50780025 54.54040461 83.55186478 60.36561883 89.51391602 66.32861328 C91.05923066 67.8717353 92.61240446 69.40664306 94.16601562 70.94140625 C100.5628518 77.30248533 106.38947449 83.92316012 112 91 C112.95237425 92.13932573 113.90870605 93.27536993 114.87109375 94.40625 C170.58803196 161.0140951 194.90241535 248.1346565 204 333 C204.11569336 333.98339355 204.23138672 334.96678711 204.35058594 335.97998047 C207.01212539 358.85579359 206.18622866 382.01222048 206 405 C206.60459549 405.12801498 207.20919098 405.25602997 207.83210754 405.38792419 C209.03246895 405.64727501 209.03246895 405.64727501 210.25708008 405.91186523 C211.04730057 406.08113022 211.83752106 406.2503952 212.65168762 406.42478943 C216.16242727 407.28473233 219.39312735 408.59307061 222.6875 410.0625 C223.3695752 410.36486572 224.05165039 410.66723145 224.75439453 410.97875977 C243.59407065 419.61342957 260.95154499 433.96510283 274 450 C273.67 450.66 273.34 451.32 273 452 C272.05382812 451.3709375 271.10765625 450.741875 270.1328125 450.09375 C237.7676447 428.97449317 201.11181483 422.27494082 163.25390625 430.15234375 C121.76286751 439.33938441 83.73018324 458.0160806 45.76171875 476.51953125 C13.35564531 492.31108467 -19.66027288 507.12347946 -55 515 C-55.75345703 515.17644043 -56.50691406 515.35288086 -57.28320312 515.53466797 C-77.92812339 520.22204973 -104.56174654 520.90503503 -125 515 C-125.81146484 514.76893555 -126.62292969 514.53787109 -127.45898438 514.29980469 C-152.94198179 506.83518312 -173.98636294 494.10405628 -193.5546875 476.22265625 C-195.90151662 474.08951605 -198.29034586 472.01367927 -200.6875 469.9375 C-204.84757905 466.23401499 -208.41610085 462.25243419 -212 458 C-213.00860576 456.85127204 -214.01919655 455.70428538 -215.03125 454.55859375 C-216.12516389 453.3100394 -217.21891284 452.06134053 -218.3125 450.8125 C-218.84077393 450.21808105 -219.36904785 449.62366211 -219.91333008 449.01123047 C-222.6822174 445.82265224 -224.72343535 443.10821716 -226 439 C-223.27294506 440.29511681 -220.85479649 441.72480781 -218.41796875 443.50390625 C-217.74137207 443.99262207 -217.06477539 444.48133789 -216.36767578 444.98486328 C-215.64821777 445.5054834 -214.92875977 446.02610352 -214.1875 446.5625 C-203.16806237 454.41875506 -191.75782862 461.15170356 -179.8125 467.5 C-178.99797363 467.93393066 -178.18344727 468.36786133 -177.34423828 468.81494141 C-176.1935083 469.41701416 -176.1935083 469.41701416 -175.01953125 470.03125 C-174.33995361 470.38767578 -173.66037598 470.74410156 -172.96020508 471.11132812 C-170.98874451 472.00510275 -169.11199575 472.54475479 -167 473 C-108.15188834 406.52553732 -81.50015937 309.70750448 -39 145 C-38.34 145 -37.68 145 -37 145 C-22.14376406 171.2354805 -13.03873289 199.19088628 -7.6875 228.8125 C-7.46634521 230.02522583 -7.46634521 230.02522583 -7.24072266 231.26245117 C-4.13636151 249.94866723 -3.62458867 268.78755699 -3.6875 287.6875 C-3.68932281 288.82886414 -3.69114563 289.97022827 -3.69302368 291.1461792 C-3.73814825 307.9463356 -4.16431423 324.40363029 -7 341 C-7.25740967 342.57563721 -7.25740967 342.57563721 -7.52001953 344.18310547 C-16.01232476 395.1900612 -34.72559408 450.28251907 -73 487 C-64.88488629 486.80802957 -57.16253739 485.33308134 -49.25 483.625 C-48.26829834 483.41593018 -47.28659668 483.20686035 -46.27514648 482.99145508 C-43.50214908 482.37630263 -40.75174468 481.70359892 -38 481 C-37.23228271 480.825896 -36.46456543 480.65179199 -35.67358398 480.47241211 C-32.61343812 479.60728656 -30.64341143 478.84434311 -28.68505859 476.27441406 C-27.47216714 473.99898522 -26.50228031 471.71364679 -25.5625 469.3125 C-25.19326416 468.43037842 -24.82402832 467.54825684 -24.44360352 466.6394043 C-23.25972423 463.77270909 -22.12551412 460.89006694 -21 458 C-20.62198242 457.04738281 -20.24396484 456.09476562 -19.85449219 455.11328125 C15.12765547 366.56752067 26.7103204 262.17264683 -11.53076172 172.40673828 C-24.48105689 143.48402244 -39.59134144 118.99774518 -70.00097656 106.75390625 C-85.1070234 101.05685292 -99.98832481 98.64949806 -116.08984375 98.73925781 C-118.36485642 98.74995232 -120.63907404 98.73931578 -122.9140625 98.7265625 C-131.1194808 98.72000252 -138.9290956 99.1942149 -147.03222656 100.58349609 C-156.38723381 101.89639856 -163.01520052 99.17214512 -170.75 94.25 C-176.37182582 88.62817418 -177.36310395 83.53918586 -177.4375 75.8125 C-177.4475708 75.12317383 -177.4576416 74.43384766 -177.46801758 73.72363281 C-177.37250325 68.12825452 -175.98169808 64.99380622 -172.08203125 61.0703125 C-171.33308594 60.42835937 -170.58414063 59.78640625 -169.8125 59.125 C-165.15936245 55.04925908 -160.62617158 50.86800362 -156.125 46.625 C-150.42462967 41.26327212 -144.69128944 35.94298416 -138.9140625 30.6640625 C-135.83157462 27.84602398 -132.75731841 25.01932282 -129.6875 22.1875 C-129.15374756 21.69572266 -128.61999512 21.20394531 -128.07006836 20.69726562 C-125.10765839 17.96313936 -122.16109364 15.21349917 -119.23046875 12.4453125 C-115.51257454 8.93538269 -111.76693619 5.45720795 -108 2 C-107.04222656 1.11699219 -106.08445312 0.23398437 -105.09765625 -0.67578125 C-74.10581445 -27.75382217 -32.61200103 -16.16531713 0 0 Z M-87.875 35.125 C-90.19256661 37.82345264 -90.19256661 37.82345264 -90.5625 41 C-89.8491179 44.80470451 -88.88381579 46.41196019 -86 49 C-81.88546541 50.27176524 -79.97148295 50.50686067 -76.125 48.5 C-73.35160428 45.23718151 -72.92518618 43.26438773 -73 39 C-74.76641172 36.19810554 -76.03049822 34.48475089 -79 33 C-83.05263598 32.45964854 -84.53730231 32.65800605 -87.875 35.125 Z M173 313 C172.8548999 313.68288086 172.7097998 314.36576172 172.56030273 315.06933594 C165.37276816 348.50103163 153.795847 378.54806379 132.71484375 405.7421875 C130.98591388 407.87413347 130.98591388 407.87413347 130 410 C131.01578125 409.74605469 132.0315625 409.49210937 133.078125 409.23046875 C133.73876953 409.06659668 134.39941406 408.90272461 135.08007812 408.73388672 C136.53960422 408.36637779 137.99665529 407.98891089 139.45117188 407.60205078 C142.83240194 406.71510982 145.95827 406.00363485 149.453125 405.69921875 C152.9375653 405.32843856 155.02100287 404.87632357 158 403 C161.95849722 397.71222964 163.90164911 391.18580067 166 385 C166.28601074 384.19804199 166.57202148 383.39608398 166.86669922 382.56982422 C168.80900726 377.1051959 170.50249268 371.60259634 172 366 C172.17934082 365.33274902 172.35868164 364.66549805 172.54345703 363.97802734 C176.59132578 348.04783484 176.96576658 329.12037639 174 313 C173.67 313 173.34 313 173 313 Z " fill="#FFFFFF" transform="translate(226,16)"/>
</svg>
